<?xml version="1.0" encoding="utf-8"?>
<!-- Generator: Adobe Illustrator 23.0.1, SVG Export Plug-In . SVG Version: 6.00 Build 0)  -->
<svg version="1.1" id="Camada_1" xmlns="http://www.w3.org/2000/svg" xmlns:xlink="http://www.w3.org/1999/xlink" x="0px" y="0px"
	 viewBox="0 0 282.2 74.2" style="enable-background:new 0 0 282.2 74.2;" xml:space="preserve">
<style type="text/css">
	.st0{fill:#FFFFFF;}
	.st1{fill:#C95B3A;}
	.st2{fill:#F4E2D6;}
</style>
<title>Logo_Carro-Certo_Neg</title>
<path class="st0" d="M96.5,24.1c5.2,0,9.5,2.8,11,7.6H102c-1-2.2-3.3-3.5-5.6-3.4c-4.1,0-7,3-7,7.8s2.9,7.8,7,7.8
	c2.4,0.1,4.6-1.2,5.6-3.4h5.4c-1.6,4.9-5.8,7.6-11,7.6c-6.6,0-12-5.4-12-12S89.8,24.1,96.5,24.1L96.5,24.1z"/>
<path class="st0" d="M120,33.1c-2.5,0-4.9,1.9-4.9,5.4s2.4,5.5,4.9,5.5s5-2,5-5.5S122.6,33.1,120,33.1z M118.8,28.9
	c2.4-0.1,4.7,1,6.2,3v-2.7h4.7v18.6H125v-2.7c-1.4,2-3.8,3.1-6.2,3c-4.7,0-8.5-3.9-8.5-9.7S114.1,28.9,118.8,28.9z"/>
<path class="st0" d="M139.1,47.9h-4.7V29.2h4.7v2.9c1.2-2,3.4-3.2,5.7-3.2v4.9h-1.2c-2.8,0-4.5,1.1-4.5,4.7V47.9z"/>
<path class="st0" d="M152.6,47.9h-4.7V29.2h4.7v2.9c1.2-2,3.4-3.2,5.7-3.2v4.9h-1.2c-2.8,0-4.5,1.1-4.5,4.7V47.9z"/>
<path class="st0" d="M169.8,44.1c2.5,0,4.9-1.8,4.9-5.5s-2.3-5.5-4.8-5.5s-4.8,1.8-4.8,5.5S167.3,44.1,169.8,44.1z M169.8,48.2
	c-5.4,0-9.5-3.8-9.5-9.6c-0.2-5.3,4-9.7,9.3-9.9s9.7,4,9.9,9.3c0,0.2,0,0.4,0,0.6C179.5,44.4,175.2,48.2,169.8,48.2z"/>
<path class="st0" d="M201.8,24.1c5.2,0,9.5,2.8,11,7.6h-5.4c-1-2.2-3.3-3.5-5.7-3.4c-4.1,0-7,3-7,7.8s2.9,7.8,7,7.8
	c2.4,0.1,4.6-1.2,5.7-3.4h5.4c-1.6,4.9-5.8,7.6-11,7.6c-6.6,0-12-5.4-12-12S195.1,24.1,201.8,24.1L201.8,24.1z"/>
<path class="st0" d="M220.5,36.8h8.9c-0.1-2.3-2-4.1-4.3-4c-0.1,0-0.1,0-0.2,0C222.6,32.8,220.6,34.5,220.5,36.8z M225,48.2
	c-5.4,0-9.4-3.8-9.4-9.6s3.8-9.6,9.4-9.6s9.2,3.7,9.2,9.2c0,0.6,0,1.2-0.1,1.8h-13.6c0,2.4,2,4.3,4.4,4.3c0,0,0.1,0,0.1,0
	c1.6,0.1,3.1-0.8,3.7-2.3h5.1C232.5,45.8,229,48.4,225,48.2L225,48.2z"/>
<path class="st0" d="M242.3,47.9h-4.7V29.2h4.7v2.9c1.2-2,3.4-3.2,5.7-3.2v4.9h-1.2c-2.8,0-4.5,1.1-4.5,4.7V47.9z"/>
<path class="st0" d="M251.9,33.1h-2.2v-3.9h2.2v-4.6h4.7v4.6h4.2v3.9h-4.2v9c0,1.3,0.5,1.8,2,1.8h2.2v4h-3c-3.6,0-6-1.5-6-5.8
	L251.9,33.1z"/>
<path class="st0" d="M272.5,44.1c2.5,0,4.9-1.8,4.9-5.5S275,33,272.5,33s-4.7,1.8-4.7,5.5S270,44.1,272.5,44.1L272.5,44.1z
	 M272.5,48.2c-5.4,0-9.5-3.8-9.5-9.6c0-5.3,4.3-9.6,9.6-9.6c5.3,0,9.6,4.3,9.6,9.6c0,0,0,0,0,0C282.2,44.4,277.9,48.2,272.5,48.2z"
	/>
<path class="st1" d="M70.1,28.5c4.8,18.2-6.2,36.9-24.4,41.6c-6.7,1.7-13.7,1.4-20.2-0.9C19,66.8,13.3,62.5,9.3,56.8l-0.1-0.1
	c-1.7-2.4-3-5-4-7.7c-0.4-1.1-0.7-2.2-1-3.3C-0.5,27.5,10.4,8.9,28.7,4.2c9.5-2.5,19.7-0.7,27.8,4.9c0.4,0.3,0.8,0.5,1.2,0.8
	l-9.2,6.5c-3.5-1.9-7.4-2.9-11.4-2.9c-0.5,0-1,0-1.6,0.1c-8.7,0.6-16.4,6-20,14c-0.2,0.5-0.4,1-0.6,1.5c-2.1,5.8-1.9,12.1,0.6,17.8
	c0.6,1.4,1.4,2.7,2.2,4l0.1,0.1c0.8,1.2,1.7,2.2,2.7,3.2l0.1,0.1c1.3,1.2,2.7,2.3,4.2,3.3c1.3,0.8,2.8,1.5,4.2,2
	c2.6,0.9,5.3,1.4,8,1.4c0.5,0,1.1,0,1.6,0h0.4l0,0c8.6-0.8,16-6.1,19.5-13.9c0.2-0.5,0.4-1,0.6-1.5c0.5-1.3,0.8-2.6,1.1-3.9
	c0.2-1.3,0.4-2.7,0.4-4.1c0-1.2-0.1-2.5-0.3-3.7l9.2-6.5C69.9,27.6,70,28,70.1,28.5z M57.1,32.2l0.2,1c0.3,1.3,0.4,2.7,0.4,4l0,0
	c0,2.4-0.4,4.8-1.3,7c-0.1,0.4-0.3,0.8-0.5,1.3c-3.1,7-9.8,11.6-17.4,12.2h-0.2c-0.4,0-0.8,0-1.2,0c-2.4,0-4.8-0.4-7-1.2
	c-1.3-0.4-2.5-1-3.6-1.7c-1.3-0.8-2.5-1.7-3.6-2.7L22.8,52c-0.9-0.9-1.8-1.9-2.5-2.9l0,0L20.2,49c-1.7-2.4-2.8-5-3.4-7.9
	c-0.7-3.7-0.4-7.5,0.9-11c0.1-0.4,0.3-0.8,0.5-1.3c3.1-7,9.8-11.7,17.4-12.2c0.5,0,0.9,0,1.4,0c3.8,0,7.5,1,10.7,3l0.8,0.5l14.1-9.8
	l-1.5-1.4c-0.9-0.8-1.9-1.6-2.9-2.3c-7.2-4.9-15.8-7.2-24.4-6.4h-0.4h-0.4l-0.5,0.1c-0.1,0-0.3,0-0.4,0.1l-0.5,0.1l-0.7,0.1L30,0.6
	l-0.8,0.2c-0.5,0.1-1.1,0.2-1.6,0.4l-1.6,0.5l-0.8,0.3c-0.5,0.2-1,0.4-1.5,0.6l-0.7,0.3l-0.7,0.3l-0.3,0.1l-0.2,0.1l-0.7,0.4
	c-0.3,0.1-0.6,0.3-0.8,0.4l-0.4,0.2l-0.8,0.5c-1.1,0.6-2.2,1.3-3.2,2c-1,0.7-2,1.5-3,2.3l-0.4,0.3l-0.4,0.3l-0.3,0.3l-0.3,0.3
	l-0.3,0.3L10.6,11l-0.3,0.3c-0.1,0.1-0.1,0.1-0.2,0.2C10,11.6,9.8,11.8,9.7,12c-2,2.2-3.7,4.6-5.2,7.3L4.1,20l0,0l-0.4,0.7
	c-0.1,0.2-0.2,0.5-0.3,0.7S3.2,21.8,3.2,22S3.1,22.2,3,22.3l-0.2,0.5c-0.1,0.1-0.1,0.3-0.2,0.4v0c-0.1,0.3-0.2,0.5-0.3,0.8l-0.1,0.4
	L2,24.9c-0.1,0.4-0.3,0.8-0.4,1.3c-0.1,0.3-0.2,0.6-0.3,0.9c0,0.1-0.1,0.3-0.1,0.4c0,0,0,0.1,0,0.1l-0.2,0.8
	c-0.1,0.4-0.2,0.9-0.3,1.3l0,0c0,0.1-0.1,0.3-0.1,0.4c-0.1,0.3-0.1,0.6-0.2,0.9c0,0.1-0.1,0.3-0.1,0.4c-0.1,0.4-0.1,0.9-0.2,1.3
	s-0.1,0.6-0.1,0.9V34c0,0.1,0,0.3,0,0.5v0.4c0,0.3,0,0.6,0,0.9s0,0.6,0,1v1c0,0.5,0,0.9,0.1,1.3s0,0.9,0.1,1.3c0,0.2,0,0.3,0.1,0.5
	s0,0.3,0.1,0.4c0,0.5,0.1,0.9,0.2,1.3c0,0.1,0.1,0.3,0.1,0.4s0.1,0.3,0.1,0.5s0,0.3,0.1,0.4s0.1,0.3,0.1,0.4S1,44.8,1,44.9
	s0.1,0.6,0.2,0.9s0.1,0.3,0.1,0.4l0.1,0.3c0,0,0,0.1,0.1,0.2c0.1,0.3,0.2,0.6,0.3,0.9c0,0.1,0.1,0.3,0.1,0.4
	c0.1,0.4,0.3,0.9,0.4,1.3c0.1,0.3,0.2,0.5,0.3,0.8s0.1,0.4,0.2,0.5l0,0L3,51.1l0.1,0.3l0.2,0.4c0.1,0.1,0.1,0.3,0.2,0.4l0.2,0.4
	c0.1,0.1,0.1,0.3,0.2,0.4l0.3,0.5L4.2,54l0.5,1L5,55.4c0,0.1,0.1,0.2,0.2,0.3c0.1,0.3,0.3,0.5,0.4,0.7s0.2,0.3,0.3,0.4
	s0.2,0.3,0.3,0.4s0.1,0.2,0.2,0.3l0.3,0.4l0,0l0.3,0.5L7,58.6L7.3,59c0.1,0.2,0.2,0.3,0.4,0.5l0.5,0.6l0.3,0.3l0.4,0.5l0.4,0.5
	c0.4,0.5,0.8,0.9,1.2,1.3l0.4,0.4l0.4,0.4l0,0c0.3,0.3,0.5,0.5,0.8,0.8s0.9,0.8,1.3,1.2s1.2,1,1.8,1.5l1.1,0.8
	c1.2,0.8,2.4,1.5,3.6,2.2c1.2,0.7,2.5,1.2,3.8,1.8l0,0c0.4,0.1,0.8,0.3,1.1,0.4s0.7,0.3,1.1,0.4l0.6,0.2c0.6,0.2,1.1,0.3,1.7,0.5
	l1.1,0.3l0.6,0.1l1.1,0.2l0.6,0.1l0.6,0.1l0.7,0.1l0.5,0.1l0.6,0.1l0.8,0.1h0.2h0.6c0.2,0,0.5,0,0.7,0h0.1
	c7.1,0.2,14.1-1.7,20.2-5.4l0.7-0.4l0.7-0.5l0.7-0.5l0,0c0.2-0.1,0.4-0.3,0.7-0.5s0.4-0.3,0.6-0.5l0,0c0.2-0.2,0.4-0.3,0.6-0.5
	c4.7-3.8,8.4-8.6,10.8-14.1c0.1-0.2,0.2-0.4,0.3-0.7c0.3-0.7,0.5-1.4,0.8-2.1c0.1-0.4,0.3-0.8,0.4-1.3s0.2-0.6,0.2-0.9
	c0.1-0.2,0.1-0.4,0.1-0.5c0.1-0.2,0.1-0.4,0.1-0.5l0,0c0.3-1.1,0.5-2.2,0.6-3.3c0.1-0.9,0.2-1.8,0.3-2.6c0-0.3,0-0.6,0.1-0.9
	c0-0.6,0-1.2,0-1.8c0-0.1,0-0.3,0-0.4v-0.5c0-0.3,0-0.6,0-0.9c0-0.1,0-0.3,0-0.5c0-0.5-0.1-0.9-0.1-1.3c0-0.1,0-0.3,0-0.5
	c0-0.4-0.1-0.8-0.1-1.2c0-0.2-0.1-0.4-0.1-0.7s-0.1-0.4-0.1-0.5s-0.1-0.5-0.1-0.8s-0.1-0.3-0.1-0.4c-0.1-0.7-0.3-1.3-0.5-2
	c-0.3-1.1-0.6-2.2-1-3.2L72,24.1l-0.7-1.8l-14.1,9.8L57.1,32.2z"/>
<path class="st2" d="M43.1,45.7C38.4,49,32,47.9,28.6,43.3l-0.1-0.1c-1.2-1.7-1.9-3.8-1.9-5.9h3c0,1.5,0.5,3,1.4,4.2l0.1,0.1
	c2.4,3.4,7.1,4.1,10.4,1.7c1.9-1.4,3.1-3.6,3.1-6l3,0C47.5,40.7,45.9,43.8,43.1,45.7z"/>
<path class="st2" d="M67.5,15.8c0.3,0.4,0.6,0.9,0.9,1.4L36.8,39.3l-6.1-8.7l2.5-1.7l4.4,6.2l29.1-20.4C67,15.1,67.3,15.4,67.5,15.8
	z"/>
<path class="st0" d="M230.5,57.8c3.7,0,6.1,1.9,6.9,5h-2.7c-0.5-1.9-2.3-3.1-4.2-3c-2.7,0-4.8,1.9-4.8,5.6s2,5.6,4.8,5.6
	c1.9,0.2,3.7-1.1,4.2-3h2.7c-0.8,3-3.2,5-6.9,5c-4.3,0-7.3-3-7.3-7.8S226.2,57.8,230.5,57.8L230.5,57.8z"/>
<path class="st0" d="M247.2,71.1c2.6,0,5.1-1.8,5.1-5.6s-2.5-5.5-5-5.5s-5,1.8-5,5.5S244.6,71.1,247.2,71.1z M247.2,73.3
	c-4.2,0-7.5-3-7.5-7.8c0-4.2,3.4-7.6,7.6-7.6c4.2,0,7.6,3.4,7.6,7.6c0,0,0,0,0,0c0.2,4.1-3,7.6-7.1,7.7
	C247.6,73.3,247.4,73.3,247.2,73.3L247.2,73.3z"/>
<path class="st0" d="M279.8,64.6c0-3.1-1.6-4.6-4.1-4.6s-4.2,1.6-4.2,4.8V73H269v-8.5c0-3.1-1.6-4.6-4.1-4.6s-4.2,1.6-4.2,4.8V73
	h-2.5V58h2.5v2.2c1-1.6,2.8-2.5,4.7-2.4c2.3-0.1,4.5,1.2,5.5,3.3c0.9-2.1,3-3.4,5.3-3.3c3.4,0,6.1,2.1,6.1,6.4V73h-2.5L279.8,64.6
	L279.8,64.6z"/>
<path class="st0" d="M218.6,67.9c-1.3,0-2.4-1-2.4-2.3s1-2.4,2.3-2.4s2.4,1,2.4,2.3c0,0,0,0,0,0.1C220.9,66.8,219.9,67.9,218.6,67.9
	z"/>
</svg>
