<?xml version="1.0" encoding="utf-8"?>
<!-- Generator: Adobe Illustrator 23.0.1, SVG Export Plug-In . SVG Version: 6.00 Build 0)  -->
<svg version="1.1" id="Camada_1" xmlns="http://www.w3.org/2000/svg" xmlns:xlink="http://www.w3.org/1999/xlink" x="0px" y="0px"
	 viewBox="0 0 233.3 70.9" style="enable-background:new 0 0 233.3 70.9;" xml:space="preserve">
<style type="text/css">
	.st0{fill:#FFFFFF;}
	.st1{fill:#AEADB3;}
	.st2{enable-background:new    ;}
</style>
<g>
	<path class="st0" d="M162.4,35.4c-1.4,0-2.6,0-3.7,0c-0.3,0-0.6-0.4-0.7-0.7c-1-1.8-1.9-3.5-2.9-5.3c-0.2-0.3-0.4-0.5-0.7-1
		c-0.1,0.5-0.2,0.7-0.2,0.9c-0.2,1.7-0.5,3.4-0.7,5.2c-0.1,0.7-0.3,1.1-1.1,1c-0.5-0.1-1,0-1.5,0c-0.9,0-1-0.1-0.9-1
		c0.2-1.6,0.4-3.2,0.6-4.8c0.4-3.4,0.8-6.9,1.3-10.3c0.2-1.4,0.2-1.4,1.5-1.3c1.9,0.1,3.9,0,5.8,0.3c2.6,0.4,3.6,2.5,3.5,4.9
		c-0.1,2.6-1.4,4.2-3.8,4.9c-0.6,0.2-0.6,0.4-0.3,0.9c1.1,1.8,2.2,3.6,3.3,5.4C162,34.5,162.1,34.9,162.4,35.4z M156.3,20.8
		c-0.4,0.2-1.1-0.4-1.2,0.5c-0.2,1.3-0.3,2.6-0.5,3.8c-0.1,0.6,0.2,0.9,0.8,0.8c0.5-0.1,1.1-0.1,1.6-0.3c1.5-0.4,2.2-1.5,2.1-3
		C158.8,21.5,157.8,20.8,156.3,20.8z"/>
	<path class="st0" d="M133.7,35.4c-0.4,0-0.7,0-1.1,0c-0.8,0-0.9-0.3-0.5-0.9c2.9-5.2,5.8-10.4,8.8-15.7c0.5-0.8,2.2-1.3,3-0.8
		c0.1,0.1,0.3,0.3,0.3,0.5c0.9,3,1.8,6.1,2.7,9.1c0.6,2.2,1.3,4.3,2,6.5c0.4,1.2,0.3,1.4-1,1.4c-0.4,0-0.8,0-1.2,0
		c-1.1,0-1.3-0.1-1.6-1.2c-0.2-0.6-0.3-1.3-0.6-1.9c-0.1-0.3-0.5-0.6-0.8-0.6c-1.9,0-3.8,0-5.7,0c-0.3,0-0.6,0.3-0.8,0.5
		c-0.4,0.6-0.9,1.3-1.1,2.1c-0.4,0.9-1,1.2-1.9,1.1C134.1,35.4,133.9,35.4,133.7,35.4z M139.2,28.6c0.1,0.1,0.1,0.2,0.2,0.3
		c1.3,0,2.6,0,3.8,0c0.5,0,0.5-0.3,0.4-0.7c-0.3-0.9-0.5-1.9-0.7-2.8c-0.2-0.7-0.4-1.3-0.6-1.9c-0.1,0-0.2,0-0.3-0.1
		C141,25.1,140.1,26.8,139.2,28.6z"/>
</g>
<g>
	<path class="st1" d="M107.8,18.2c4.1,4.9,8.1,9.8,12.2,14.6c0.1,0,0.2-0.1,0.3-0.1c0.1-0.3,0.1-0.5,0.2-0.8
		c0.6-4.4,1.1-8.9,1.7-13.3c0-0.2,0.4-0.4,0.6-0.6c0.1,0.2,0.3,0.5,0.3,0.7c-0.6,4.9-1.2,9.8-1.8,14.7c-0.1,0.6-0.1,1.2-0.2,2.1
		c-0.3-0.3-0.5-0.5-0.7-0.7c-3.7-4.4-7.3-8.8-11-13.2c-0.3-0.3-0.7-0.5-1-0.8c-0.1,0.4-0.3,0.8-0.3,1.2c-0.4,2.9-0.7,5.8-1.1,8.7
		c-0.2,1.2-0.3,2.5-0.5,3.7c0,0.3-0.4,0.5-0.6,0.7c-0.1-0.3-0.3-0.6-0.3-0.8c0.4-3.3,0.8-6.6,1.2-9.9c0.2-1.8,0.4-3.5,0.6-5.3
		c0-0.3,0.1-0.6,0.2-1C107.6,18.2,107.7,18.2,107.8,18.2z"/>
	<path class="st1" d="M79.7,18c0.3,1.2,0.7,2.4,1,3.6c0.8,2.8,1.6,5.7,2.4,8.6c0.4,1.5,0.8,3,1.2,4.4c0,0.2-0.1,0.4-0.1,0.6
		c-0.2-0.1-0.6-0.1-0.7-0.2c-0.2-0.2-0.3-0.6-0.4-0.9c-0.3-1.2-0.7-2.4-1-3.6c-0.2-0.5-0.5-0.8-1.1-0.8c-1.9,0-3.9,0-5.8,0
		c-0.8,0-1.1,0.5-1.4,1.1c-0.7,1.3-1.4,2.7-2.1,4c-0.1,0.2-0.2,0.4-0.3,0.5c-0.2,0.1-0.5,0-0.8,0c0-0.2-0.1-0.5,0-0.7
		c1.5-2.8,2.9-5.5,4.4-8.3c1.4-2.5,2.7-5.1,4.1-7.6c0.1-0.2,0.3-0.4,0.4-0.6C79.5,18,79.6,18,79.7,18z M79.4,20.8
		c-0.1,0-0.2,0-0.3,0c-0.2,0.2-0.4,0.4-0.5,0.6c-1.2,2.2-2.3,4.4-3.4,6.5c-0.3,0.6,0,0.8,0.5,0.8c1.6,0,3.2,0,4.9,0
		c0.6,0,0.9-0.3,0.7-0.9c-0.4-1.4-0.7-2.8-1.1-4.1C80,22.7,79.7,21.8,79.4,20.8z"/>
	<path class="st1" d="M98.7,35.2c-1,0-2.1,0-3.1,0c-0.7,0-1-0.2-0.9-0.9c0.2-1.4,0.3-2.8,0.5-4.2c0.5-3.7,0.9-7.4,1.4-11.1
		c0.1-0.8,0.4-1.1,1.2-1.1c2.1,0.1,4.3,0,6.4,0c0.2,0,0.5,0.3,0.7,0.5c-0.2,0.2-0.5,0.5-0.7,0.5c-1.9,0-3.8,0-5.6,0
		c-0.7,0-0.9,0.2-1,0.9c-0.2,1.6-0.4,3.1-0.6,4.7c-0.1,0.7,0.3,0.9,0.9,0.9c1.7,0,3.4,0,5.1,0c0.3,0,0.6,0.3,0.8,0.4
		c-0.3,0.2-0.5,0.4-0.8,0.4c-1.8,0-3.5,0-5.3,0c-0.6,0-0.9,0.2-1,0.8c-0.3,2.1-0.5,4.2-0.8,6.3c-0.1,0.8,0.3,1,1,1
		c1.7,0,3.5,0,5.2,0c0.2,0,0.5,0.3,0.7,0.4c-0.2,0.2-0.5,0.4-0.7,0.4C101,35.3,99.9,35.2,98.7,35.2z"/>
	<path class="st1" d="M86.9,35.6c-0.2-0.5-0.3-0.8-0.4-1.2c-0.6-2.4-1.1-4.8-1.6-7.2c-0.6-2.7-1.3-5.4-1.9-8.2
		c-0.1-0.4-0.3-0.9,0.3-1c0.6-0.1,0.7,0.4,0.8,0.9c0.8,3.8,1.7,7.6,2.5,11.4c0.1,0.5,0.2,0.9,0.3,1.4c0.1,0.2,0.3,0.3,0.4,0.5
		c0.1-0.1,0.4-0.3,0.4-0.4c1.6-3.5,3.2-7,4.8-10.5c0.4-0.9,0.8-1.8,1.3-2.7c0.1-0.2,0.6-0.3,0.9-0.5c0,0.3,0.1,0.6,0,0.9
		c-1.3,2.9-2.7,5.9-4.1,8.8c-1.1,2.3-2.2,4.7-3.2,7C87.4,34.9,87.2,35.1,86.9,35.6z"/>
	<path class="st1" d="M129.6,18c1.4,0,2.8,0,4.2,0c0.4,0,0.8,0,0.7,0.5c0,0.2-0.5,0.4-0.7,0.4c-0.9,0.1-1.9,0-2.9,0
		c-0.7,0-1,0.2-1.1,0.9c-0.3,2.9-0.7,5.8-1,8.7c-0.2,2-0.5,4.1-0.8,6.1c0,0.2-0.4,0.4-0.6,0.6c-0.1-0.3-0.3-0.5-0.3-0.8
		c0.6-4.9,1.2-9.7,1.8-14.6c0.1-0.6-0.1-0.9-0.7-0.9c-1,0-1.9,0-2.9,0c-0.3,0-0.5-0.3-0.7-0.4c0.3-0.2,0.5-0.5,0.8-0.5
		C126.8,18,128.2,18,129.6,18z"/>
</g>
<g class="st2">
	<path class="st0" d="M20,48.4h-3.4l-1.7,9.4h-1.9l1.7-9.4h-3.3l0.3-1.5h8.6L20,48.4z"/>
	<path class="st0" d="M27,52.9h-4.4L22,56.2h5.2l-0.3,1.5h-7.1l1.9-10.9h7l-0.3,1.5h-5.1l-0.5,3h4.4L27,52.9z"/>
	<path class="st0" d="M34.6,54.9c0.1-0.7-0.3-1.3-1.2-1.6l-0.6-0.2c-1.2-0.4-2-0.9-2.5-1.4c-0.5-0.5-0.7-1.2-0.7-1.9
		c0-0.6,0.3-1.2,0.6-1.6c0.4-0.5,0.9-0.8,1.5-1.1c0.6-0.3,1.3-0.4,2-0.4c0.7,0,1.3,0.2,1.9,0.4s1,0.7,1.2,1.2
		c0.3,0.5,0.4,1.1,0.4,1.7l-1.9,0c0-0.6-0.1-1-0.4-1.3s-0.7-0.5-1.3-0.5c-0.6,0-1.1,0.1-1.5,0.4c-0.4,0.3-0.7,0.7-0.7,1.2
		c-0.1,0.6,0.3,1.1,1.3,1.5l0.6,0.2c1.2,0.4,2,0.9,2.4,1.4c0.5,0.6,0.7,1.2,0.6,2c-0.1,0.6-0.3,1.2-0.6,1.6
		c-0.4,0.5-0.9,0.8-1.5,1.1c-0.6,0.3-1.3,0.4-2.1,0.4c-0.7,0-1.4-0.2-2-0.5c-0.6-0.3-1.1-0.7-1.4-1.2c-0.3-0.5-0.5-1.1-0.4-1.8
		l1.9,0c0,0.6,0.1,1.1,0.5,1.4c0.4,0.3,0.9,0.5,1.5,0.5c0.6,0,1.1-0.1,1.5-0.4S34.6,55.4,34.6,54.9z"/>
	<path class="st0" d="M47.2,48.4h-3.4l-1.7,9.4h-1.9l1.7-9.4h-3.3l0.3-1.5h8.6L47.2,48.4z"/>
	<path class="st0" d="M54.2,52.9h-4.4l-0.6,3.4h5.2l-0.3,1.5H47L49,46.8h7l-0.3,1.5h-5.1l-0.5,3h4.4L54.2,52.9z"/>
	<path class="st0" d="M60.1,46.8l1.6,8.4l4.6-8.4h2.5l-1.9,10.9h-1.9l0.7-3.7l1-4.6L62,57.8h-1.4l-1.7-8.5l-0.7,5l-0.6,3.5h-1.9
		l1.9-10.9H60.1z"/>
	<path class="st0" d="M79,46.8l-1.3,7.3c-0.2,1.2-0.7,2.1-1.5,2.8s-1.9,1-3.1,1c-1.1,0-2-0.4-2.6-1c-0.6-0.6-0.9-1.5-0.9-2.5l0-0.3
		l1.3-7.3h1.9l-1.3,7.3c-0.1,0.7,0,1.2,0.3,1.6c0.3,0.4,0.8,0.6,1.4,0.6c0.7,0,1.3-0.2,1.7-0.5s0.8-0.9,0.9-1.7l1.3-7.4H79z"/>
	<path class="st0" d="M87.7,57.8h-1.8l-3.5-7.8L81,57.8h-1.9L81,46.8h1.8l3.5,7.9l1.4-7.9h1.9L87.7,57.8z"/>
	<path class="st0" d="M98.6,57.8h-1.9l0.9-4.9h-4.8l-0.9,4.9H90l1.9-10.9h1.9L93,51.4h4.8l0.8-4.6h1.9L98.6,57.8z"/>
	<path class="st0" d="M107.5,55.2h-4.2l-1.3,2.5h-2l6-10.9h1.7l2.2,10.9H108L107.5,55.2z M104.2,53.7h3.1l-0.8-4.5L104.2,53.7z"/>
	<path class="st0" d="M113.3,56.2h4.9l-0.3,1.5h-6.8l1.9-10.9h1.9L113.3,56.2z"/>
	<path class="st0" d="M126,53.7l-0.7,4.1h-1.9l1.9-10.9l3.9,0c1.2,0,2.1,0.3,2.7,0.9c0.7,0.6,1,1.5,0.9,2.5
		c-0.1,1.1-0.5,1.9-1.3,2.5s-1.8,0.9-3.1,0.9L126,53.7z M126.2,52.2l2.2,0c0.7,0,1.2-0.2,1.7-0.5c0.4-0.3,0.7-0.8,0.8-1.4
		c0.1-0.6,0-1-0.3-1.3c-0.3-0.3-0.7-0.5-1.3-0.5l-2.4,0L126.2,52.2z"/>
	<path class="st0" d="M143,46.8l-1.3,7.3c-0.2,1.2-0.7,2.1-1.5,2.8s-1.9,1-3.1,1c-1.1,0-2-0.4-2.6-1c-0.6-0.6-0.9-1.5-0.9-2.5l0-0.3
		l1.3-7.3h1.9l-1.3,7.3c-0.1,0.7,0,1.2,0.3,1.6c0.3,0.4,0.8,0.6,1.4,0.6c0.7,0,1.3-0.2,1.7-0.5c0.5-0.4,0.8-0.9,0.9-1.7l1.3-7.4H143
		z"/>
	<path class="st0" d="M143.2,57.8l1.9-10.9l3.4,0c1.2,0,2.1,0.3,2.7,0.8c0.6,0.5,0.9,1.2,0.8,2.1c-0.1,1.1-0.8,1.9-2,2.4
		c0.5,0.2,0.8,0.5,1.1,0.9s0.4,0.9,0.3,1.5c-0.1,1-0.5,1.8-1.2,2.4c-0.7,0.6-1.7,0.9-3,0.9H143.2z M145.9,52.8l-0.6,3.4l2,0
		c0.6,0,1.1-0.2,1.5-0.5c0.4-0.3,0.7-0.7,0.7-1.3c0.1-0.5,0-0.9-0.2-1.2c-0.2-0.3-0.6-0.4-1.1-0.5L145.9,52.8z M146.2,51.4l1.7,0
		c0.6,0,1.1-0.1,1.5-0.4c0.4-0.3,0.6-0.7,0.7-1.2c0.1-0.9-0.4-1.4-1.4-1.5l-2,0L146.2,51.4z"/>
	<path class="st0" d="M155,56.2h4.9l-0.3,1.5h-6.8l1.9-10.9h1.9L155,56.2z"/>
	<path class="st0" d="M163.1,57.8h-1.9l1.9-10.9h1.9L163.1,57.8z"/>
	<path class="st0" d="M174.3,54.2c-0.2,1.1-0.7,2.1-1.6,2.7s-1.9,1-3.1,1c-0.7,0-1.3-0.2-1.9-0.5s-1-0.8-1.3-1.4
		c-0.3-0.6-0.5-1.3-0.5-2c0-0.6,0-1.3,0.2-2.3c0.2-1,0.5-1.9,1-2.6c0.5-0.8,1.1-1.4,1.8-1.8c0.7-0.4,1.5-0.6,2.4-0.6
		c1.1,0,2,0.4,2.6,1s1,1.6,1,2.7h-1.9c0-0.8-0.2-1.3-0.5-1.7c-0.3-0.3-0.8-0.5-1.4-0.5c-0.8,0-1.5,0.3-2.1,0.9s-0.9,1.5-1.1,2.7
		l-0.2,1l-0.1,0.8c0,0.5,0,1,0.1,1.5c0.1,0.5,0.3,0.8,0.6,1c0.3,0.2,0.7,0.4,1.1,0.4c1.4,0.1,2.3-0.7,2.7-2.2L174.3,54.2z"/>
	<path class="st0" d="M177.5,57.8h-1.9l1.9-10.9h1.9L177.5,57.8z"/>
	<path class="st0" d="M189.1,48.4h-3.4l-1.7,9.4h-1.9l1.7-9.4h-3.3l0.3-1.5h8.6L189.1,48.4z"/>
	<path class="st0" d="M194.6,55.2h-4.2l-1.3,2.5h-2l6-10.9h1.7l2.2,10.9H195L194.6,55.2z M191.2,53.7h3.1l-0.8-4.5L191.2,53.7z
		 M194.9,43.9h2.2l-2.4,2.3l-1.6,0L194.9,43.9z"/>
	<path class="st0" d="M203,53.6h-2.1l-0.8,4.2h-1.9l1.9-10.9l3.5,0c1.2,0,2.1,0.3,2.8,0.9s0.9,1.4,0.8,2.4c-0.1,0.7-0.3,1.3-0.7,1.8
		c-0.4,0.5-1,0.9-1.8,1.2l1.6,4.5l0,0.1h-2L203,53.6z M201.2,52l1.8,0c0.7,0,1.2-0.2,1.7-0.5c0.4-0.3,0.7-0.8,0.8-1.4
		c0.1-0.6,0-1-0.3-1.3c-0.3-0.3-0.7-0.5-1.3-0.5l-2,0L201.2,52z"/>
	<path class="st0" d="M209.8,57.8h-1.9l1.9-10.9h1.9L209.8,57.8z"/>
	<path class="st0" d="M216.5,57.9c-0.7,0-1.4-0.2-1.9-0.5c-0.5-0.3-1-0.8-1.3-1.4s-0.5-1.3-0.5-2.1c0-0.6,0-1.4,0.2-2.2
		c0.2-0.8,0.4-1.6,0.8-2.3c0.4-0.7,0.8-1.3,1.4-1.7c0.9-0.7,1.9-1.1,3.1-1c1.1,0,2,0.4,2.6,1.1c0.7,0.7,1,1.7,1.1,2.9
		c0,0.6,0,1.3-0.2,2.1s-0.4,1.5-0.8,2.2c-0.4,0.7-0.8,1.2-1.3,1.7C218.8,57.6,217.7,57.9,216.5,57.9z M220,52l0.1-0.8
		c0-0.5,0-1.1-0.1-1.5c-0.1-0.5-0.3-0.8-0.6-1.1s-0.7-0.4-1.2-0.4c-0.6,0-1.2,0.2-1.7,0.5c-0.5,0.4-0.9,0.9-1.2,1.7
		c-0.3,0.8-0.5,1.7-0.5,2.9c-0.1,0.9,0.1,1.6,0.4,2.2s0.8,0.8,1.5,0.8c0.9,0,1.6-0.3,2.2-1c0.6-0.7,1-1.6,1.1-2.9L220,52z"/>
</g>
</svg>
