<svg fill="none" height="134" viewBox="0 0 433 134" width="433" xmlns="http://www.w3.org/2000/svg" xmlns:xlink="http://www.w3.org/1999/xlink"><clipPath id="a"><path d="m0 0h432.11v133.64h-432.11z"/></clipPath><g clip-path="url(#a)"><path d="m28.58 56.13c-.1214-.3571-.2216-.721-.3-1.09-4.5349-14.8057-4.0923-30.6897 1.26-45.21999l-18-8.999999c-1.2209-.610931-2.57779-.8992649-3.9416-.8375605s-2.68914.4713935-3.84986 1.1900795c-1.16072.71868-2.11821 1.72245-2.781357 2.91578-.663142 1.19332-1.0098691 2.5365-1.0071837 3.9017v93.44999c3.1400007-1.53 4.1100007-8.6 7.1100007-10.88 3.58-2.73 8.35.68 11.42-2.9s-2.39-9.2-1.71-13.3 7.67-1 11.35-2.89 2.29-9.89.41-15.34" fill="#e51e5b"/><path d="m48.35 103.17c-.0031-3.7889.3315-7.5705 1-11.3-4.25.47-10.07-2.25-13.51-1.45-4.14 1-5.34 4.58-7.72 11s-3.84 12.4-1 16.27c1.1376 1.683 2.0708 3.496 2.78 5.4 1.22 3.05 2.14 6.17 3 7.86.28.53.85 1.5 1.6 2.71l17.57-8.84c-2.5033-6.947-3.779-14.276-3.77-21.66" fill="#04b3e6"/><path d="m29.54 9.82001c-5.3508 14.52019-5.7934 30.39419-1.26 45.18999-.9-4.54 3.55-5.74 8.14-8.12 2.63-1.36 2.85-4.15 2.66-7-.17-2.55-.66-5.16-.1-6.9 1.19-3.71 6-.73 11.76-2.6 1.8888-.5945 3.5546-1.7445 4.78-3.3.38-1.23.8-2.44 1.24-3.64z" fill="#0e7b9a"/><path d="m88.96 39.55-2-1z" fill="#e7d734"/><path d="m78.59 98.16c-7.9795-5.9964-14.4791-13.7412-19-22.64-.1925.3145-.4358.595-.72.83-.6709.5544-1.4734.9264-2.33 1.08.442.3505.7793.8156.975 1.3446s.2424 1.1017.135 1.6554c-.48 1.73-2.24.65-2.93 2.3-.61 1.47.76 5-1.9 7.53-.3395.3211-.7115.6059-1.11.85-.7345.428-1.5535.6908-2.4.77-1.9789 11.053-1.0238 22.432 2.77 33l28.24-14.12c-.7269-2.62-1.232-5.296-1.51-8-.1575-1.502-.2443-3.0101-.26-4.52" fill="#f59c16"/><path d="m87.74 69.27c-2.9221-6.3539-4.4302-13.2664-4.42-20.26v-2.79c.148-2.4617.4823-4.9087 1-7.32l.34-1.48 2.27 1.14-30.17-15.1-1.24 3.64c1.3685 2.2497 2.2792 4.7475 2.68 7.35l.71 5c.49 3.42.63 5.16-.23 7.15l-.92 2.15c-.3416.7844-.507 1.6342-.4846 2.4895.0225.8552.2323 1.6951.6146 2.4605 1.25 3.07 2.36 3.82 3.46 5.27.73 1 1.57 2 2.28 2.81l1 1.16c.77.93.81 1.87 0 3.19s-1.73 2.38-2.53 2.52c-.4752.0373-.9352.1851-1.3432.4316-.408.2466-.7528.585-1.0068.9884-.54 1-.29 2.13.05 3.41.1275.3326.1819.6887.1595 1.0442s-.1212.7019-.2895 1.0158c4.5209 8.8989 11.0205 16.6436 19 22.64v-.5c-.0169-10.1909 3.1854-20.1268 9.15-28.39" fill="#e7d734"/><path d="m110.26 92.53c-9.937-4.9615-17.8822-13.1676-22.52-23.26-5.9646 8.2632-9.1669 18.1991-9.15 28.39v.5c0 1.53.1 3 .26 4.52.278 2.704.7831 5.38 1.51 8l30.18-15.09c-.14-1.0253-.233-2.0563-.28-3.09" fill="#7dc5af"/><path d="m115.05 52.6.32.16-21.41-10.72-5-2.49-2-1-2.27-1.14-.34 1.48c-.5177 2.4113-.852 4.8583-1 7.32v2.79c-.0014 9.0418 2.5191 17.9049 7.2782 25.5929s11.5678 13.8963 19.6618 17.9271v-1.63c-.008-7.8219 2.6-15.4218 7.41-21.59-1.81-4.2951-2.742-8.9091-2.74-13.57l.14-3.13" fill="#2eab61"/><path d="m122.59 77.67c-2.05-2.5387-3.733-5.3529-5-8.36-4.81 6.1682-7.418 13.7681-7.41 21.59v1.63c0 1 .14 2.07.28 3.09l3.11-1.56 3.93-2 13.52-6.76c-3.235-2.0772-6.109-4.6679-8.51-7.67" fill="#7f4996"/><path d="m145.96 72.46c0-.24 0-.49-.08-.73v-.09c-.033-.2259-.08-.4497-.14-.67.004-.0432.004-.0868 0-.13 0-.12-.07-.24-.1-.36l-.06-.17-.12-.31-.09-.21-.23-.5c-.779-1.4799-2.008-2.6741-3.51-3.41l-13.86-6.93-9.93-5-2.7-1.35c-.1 1-.14 2.07-.14 3.13-.009 7.9738 2.7 15.7124 7.68 21.94 2.401 3.0021 5.275 5.5928 8.51 7.67l10.44-5.22c.301-.1499.592-.3203.87-.51l.3-.2.72-.59.46-.46.64-.8.08-.12c.981-1.4746 1.446-3.2331 1.32-5" fill="#905ba1"/><path d="m352.76 88.33h-12.17c-4.087 0-7.29-1.1733-9.61-3.52s-3.477-5.5333-3.47-9.56v-22.36h-7.84v-10.55h7.84v-5.77c0-1.5303.608-2.9979 1.69-4.08s2.55-1.69 4.08-1.69h6.59v11.54h12.89v10.55h-12.89v22c.008.7623.313 1.4914.852 2.0314.538.5401 1.266.8482 2.028.8586h10zm-153.92-46c-4.43-.0805-8.806.9765-12.71 3.07-3.614 1.9345-6.661 4.7781-8.84 8.25-2.12 3.5252-3.241 7.5612-3.241 11.675s1.121 8.1498 3.241 11.675c2.179 3.4719 5.226 6.3155 8.84 8.25 3.906 2.0893 8.281 3.1461 12.71 3.07h5.77v-10.5h-5.77c-2.287.0561-4.547-.5071-6.54-1.63-1.805-1.0545-3.272-2.6016-4.23-4.46-.98-1.9752-1.49-4.1501-1.49-6.355 0-2.2048.51-4.3798 1.49-6.355.956-1.8621 2.423-3.4128 4.23-4.47 1.994-1.1194 4.254-1.6792 6.54-1.62h5.77v-4.78c0-1.5303-.608-2.9979-1.69-4.08s-2.55-1.69-4.08-1.69zm21 .05h-6.67v46h12.44v-40.27c0-1.5303-.608-2.9979-1.69-4.08s-2.55-1.69-4.08-1.69zm-.42-21.04c-1.823-.0247-3.598.5851-5.021 1.7249-1.422 1.1399-2.405 2.7389-2.779 4.5233-.373 1.7843-.115 3.6432.731 5.2581.846 1.615 2.227 2.8857 3.906 3.5945 1.68.7089 3.554.8118 5.301.2912 1.747-.5207 3.259-1.6325 4.277-3.1451s1.478-3.3319 1.302-5.1465-.978-3.5116-2.267-4.8004c-.703-.7357-1.549-1.3193-2.487-1.7149-.937-.3956-1.946-.5948-2.963-.5851zm83.34 22.58c-3.668-1.8672-7.746-2.7819-11.86-2.66-2.097-.0166-4.188.2388-6.22.76-1.866.4899-3.656 1.2335-5.32 2.21-1.59.9455-3.046 2.0991-4.33 3.43h-.07c-1.233-1.3454-2.659-2.5012-4.23-3.43-1.652-.9711-3.428-1.7145-5.28-2.21-2.018-.5244-4.096-.7799-6.18-.76-4.111-.1224-8.186.7924-11.85 2.66-3.136 1.6324-5.746 4.1179-7.53 7.17-1.749 3.0074-2.654 6.4311-2.62 9.91v21.55c0 1.5312.608 2.9999 1.689 4.0836 1.082 1.0836 2.55 1.6938 4.081 1.6964h6.59v-27.33c-.018-1.6233.434-3.2171 1.3-4.59.878-1.3881 2.088-2.5359 3.52-3.34 1.481-.8267 3.149-1.2607 4.845-1.2607s3.364.434 4.845 1.2607c1.416.8084 2.608 1.9562 3.47 3.34.874 1.3699 1.329 2.9651 1.31 4.59v27.33h12.34v-27.33c-.018-1.6233.434-3.2171 1.3-4.59.875-1.3903 2.086-2.5386 3.52-3.34 1.481-.8267 3.149-1.2607 4.845-1.2607s3.364.434 4.845 1.2607c1.416.8084 2.608 1.9562 3.47 3.34.874 1.3699 1.329 2.9651 1.31 4.59v27.33h6.59c1.531-.0026 2.999-.6128 4.081-1.6964 1.081-1.0837 1.689-2.5524 1.689-4.0836v-21.55c.03-3.4784-.875-6.9009-2.62-9.91-1.784-3.0521-4.394-5.5376-7.53-7.17zm129.35 21.5v17.13c.001.7586-.147 1.51-.436 2.2112-.29.7012-.715 1.3384-1.25 1.8753-.536.5368-1.173.9627-1.874 1.2533-.7.2906-1.451.4402-2.21.4402h-6.59v-7.67h-.18c-.9 1.6333-2.04 3.1231-3.38 4.42-1.417 1.3608-3.084 2.4339-4.91 3.16-2.187.8268-4.513 1.2241-6.85 1.17-3.916.0903-7.762-1.046-11-3.25-3.159-2.1939-5.667-5.1995-7.26-8.7-1.74-3.7587-2.618-7.8585-2.57-12-.061-4.2671.946-8.4817 2.93-12.26 1.924-3.6434 4.849-6.6617 8.43-8.7 4.021-2.2269 8.566-3.3321 13.16-3.2 4.576-.1516 9.104.9701 13.08 3.24 3.475 2.0928 6.287 5.1264 8.11 8.75 1.894 3.7742 2.854 7.9477 2.8 12.17zm-12.54-.14c.038-2.3441-.436-4.6683-1.39-6.81-.868-1.9417-2.252-3.6086-4-4.82-1.834-1.2398-4.007-1.8793-6.22-1.83-2.251-.0609-4.466.5671-6.35 1.8-1.775 1.1981-3.181 2.8672-4.06 4.82-.957 2.1409-1.435 4.4651-1.4 6.81-.031 2.3735.447 4.7261 1.4 6.9.86 1.989 2.268 3.692 4.06 4.91 1.887 1.2218 4.103 1.836 6.35 1.76 2.211.0598 4.386-.573 6.22-1.81 1.765-1.2316 3.151-2.9323 4-4.91.95-2.1747 1.424-4.5272 1.39-6.9zm-44.9-17.21c0-1.5303-.608-2.9979-1.69-4.08s-2.55-1.69-4.08-1.69h-6.67v46h12.44zm-6.19-11.25c1.82.0214 3.591-.5903 5.009-1.7304 1.419-1.14 2.398-2.7376 2.768-4.5194.371-1.7819.111-3.6372-.735-5.2486-.846-1.6115-2.225-2.8788-3.902-3.5854-1.678-.7065-3.548-.8083-5.292-.2879s-3.253 1.6306-4.269 3.1407c-1.016 1.5102-1.476 3.3263-1.3 5.1379.175 1.8115.974 3.5059 2.261 4.7931.705.7359 1.553 1.3197 2.492 1.7153s1.949.5946 2.968.5847zm3.48 89c-1.744.035-3.456-.471-4.9-1.45-1.404-.985-2.521-2.323-3.24-3.88-.773-1.68-1.162-3.511-1.14-5.36-.027-1.903.42-3.783 1.3-5.47.862-1.622 2.166-2.967 3.76-3.88 1.795-.988 3.822-1.478 5.87-1.42 2.039-.066 4.056.432 5.83 1.44 1.546.935 2.797 2.287 3.61 3.9.843 1.685 1.272 3.546 1.25 5.43v7c-.003.858-.345 1.679-.952 2.285-.608.605-1.43.945-2.288.945h-2.27v-3.41h-.08c-.4.736-.906 1.41-1.5 2-.631.605-1.376 1.081-2.19 1.4-.98.352-2.019.512-3.06.47zm1.57-4.71c.984.028 1.952-.252 2.77-.8.786-.552 1.406-1.309 1.79-2.19.421-.968.632-2.014.62-3.07.01-1.033-.202-2.056-.62-3-.391-.866-1.01-1.609-1.79-2.15-.82-.544-1.787-.823-2.77-.8-1.002-.023-1.988.256-2.83.8-.791.535-1.418 1.279-1.81 2.15-.426.942-.641 1.966-.63 3-.014 1.057.201 2.104.63 3.07.385.886 1.013 1.645 1.81 2.19.839.551 1.827.831 2.83.8zm21 3.88c-1.289-.51-2.445-1.307-3.38-2.33-.928-1.027-1.639-2.231-2.09-3.54-.493-1.428-.736-2.93-.72-4.44-.043-1.86.376-3.702 1.22-5.36.788-1.508 1.979-2.768 3.44-3.64 1.587-.909 3.392-1.366 5.22-1.32.837-.003 1.669.118 2.47.36.76.216 1.479.553 2.13 1 .617.443 1.154.988 1.59 1.61v-11.36h2.27c.858 0 1.68.34 2.287.9454.608.6055.95 1.427.953 2.2846v15.45c.045 2.043-.411 4.065-1.33 5.89-.843 1.636-2.151 2.986-3.76 3.88-1.756.945-3.727 1.417-5.72 1.37-1.58.03-3.15-.252-4.62-.83zm7.37-4.71c.792-.542 1.419-1.293 1.81-2.17.409-.967.62-2.005.62-3.055s-.211-2.088-.62-3.055c-.391-.877-1.018-1.628-1.81-2.17-.842-.523-1.814-.8-2.805-.8s-1.963.277-2.805.8c-.781.547-1.396 1.297-1.78 2.17-.416.965-.63 2.004-.63 3.055s.214 2.09.63 3.055c.384.873.999 1.623 1.78 2.17.842.523 1.814.8 2.805.8s1.963-.277 2.805-.8zm13.06 1.79v-1.47h10c.299.004.594-.065.86-.2.249-.126.457-.32.6-.56.149-.243.226-.524.22-.81.008-.295-.068-.587-.22-.84-.148-.241-.354-.441-.6-.58-.261-.151-.559-.227-.86-.22h-3.86c-1.216.017-2.424-.196-3.56-.63-1.031-.387-1.915-1.086-2.53-2-.674-1.087-1.002-2.353-.94-3.63-.012-1.113.286-2.207.86-3.16.574-.945 1.375-1.733 2.33-2.29.983-.573 2.102-.87 3.24-.86h6.36c.858 0 1.68.34 2.287.945.608.606.95 1.427.953 2.285v1.47h-9.04c-.394-.005-.776.138-1.07.4-.151.129-.27.291-.35.472-.08.182-.117.38-.11.578-.005.198.031.394.107.577.076.182.189.347.333.483.293.279.685.43 1.09.42h3.9c1.302-.032 2.597.195 3.81.67 1.031.404 1.905 1.13 2.49 2.07.639 1.121.948 2.401.89 3.69.009 1.142-.299 2.263-.89 3.24-.576.968-1.393 1.77-2.37 2.33-1.012.582-2.163.88-3.33.86h-7.29c-.858 0-1.68-.34-2.287-.945-.608-.606-.95-1.427-.953-2.285" fill="#fff"/></g></svg>
