<?xml version="1.0" encoding="utf-8"?>
<!-- Generator: Adobe Illustrator 23.0.1, SVG Export Plug-In . SVG Version: 6.00 Build 0)  -->
<svg version="1.1" id="Camada_1" xmlns="http://www.w3.org/2000/svg" xmlns:xlink="http://www.w3.org/1999/xlink" x="0px" y="0px"
	 viewBox="0 0 433 134" style="enable-background:new 0 0 433 134;" xml:space="preserve">
<style type="text/css">
	.st0{fill:#E51E5B;}
	.st1{fill:#04B3E6;}
	.st2{fill:#0E7B9A;}
	.st3{fill:#E7D734;}
	.st4{fill:#F59C16;}
	.st5{fill:#7DC5AF;}
	.st6{fill:#2EAB61;}
	.st7{fill:#7F4996;}
	.st8{fill:#905BA1;}
	.st9{fill:#444242;}
</style>
<g>
	<path class="st0" d="M28.6,56.1c-0.1-0.4-0.2-0.7-0.3-1.1c-4.5-14.8-4.1-30.7,1.3-45.2l-18-9C10.3,0.2,9-0.1,7.6,0S4.9,0.5,3.7,1.2
		C2.6,1.9,1.6,2.9,1,4.1C0.3,5.3,0,6.6,0,8v93.4c3.1-1.5,4.1-8.6,7.1-10.9c3.6-2.7,8.4,0.7,11.4-2.9s-2.4-9.2-1.7-13.3
		s7.7-1,11.4-2.9S30.4,61.6,28.6,56.1"/>
	<path class="st1" d="M48.3,103.2c0-3.8,0.3-7.6,1-11.3c-4.3,0.5-10.1-2.3-13.5-1.4c-4.1,1-5.3,4.6-7.7,11s-3.8,12.4-1,16.3
		c1.1,1.7,2.1,3.5,2.8,5.4c1.2,3.1,2.1,6.2,3,7.9c0.3,0.5,0.8,1.5,1.6,2.7l17.6-8.8C49.6,117.9,48.3,110.5,48.3,103.2"/>
	<path class="st2" d="M29.5,9.8c-5.4,14.5-5.8,30.4-1.3,45.2c-0.9-4.5,3.5-5.7,8.1-8.1c2.6-1.4,2.8-4.2,2.7-7
		c-0.2-2.5-0.7-5.2-0.1-6.9c1.2-3.7,6-0.7,11.8-2.6c1.9-0.6,3.6-1.7,4.8-3.3c0.4-1.2,0.8-2.4,1.2-3.6L29.5,9.8z"/>
	<path class="st3" d="M89,39.5l-2-1L89,39.5z"/>
	<path class="st4" d="M78.6,98.2c-8-6-14.5-13.7-19-22.6c-0.2,0.3-0.4,0.6-0.7,0.8c-0.7,0.6-1.5,0.9-2.3,1.1c0.4,0.4,0.8,0.8,1,1.3
		s0.2,1.1,0.1,1.7c-0.5,1.7-2.2,0.7-2.9,2.3c-0.6,1.5,0.8,5-1.9,7.5c-0.3,0.3-0.7,0.6-1.1,0.8c-0.7,0.4-1.6,0.7-2.4,0.8
		c-2,11.1-1,22.4,2.8,33l28.2-14.1c-0.7-2.6-1.2-5.3-1.5-8C78.7,101.3,78.6,99.7,78.6,98.2"/>
	<path class="st3" d="M87.7,69.3C84.8,62.9,83.3,56,83.3,49v-2.8c0.1-2.5,0.5-4.9,1-7.3l0.3-1.5l2.3,1.1L56.8,23.5l-1.2,3.6
		c1.4,2.2,2.3,4.7,2.7,7.4l0.7,5c0.5,3.4,0.6,5.2-0.2,7.2l-0.9,2.2c-0.3,0.8-0.5,1.6-0.5,2.5c0,0.9,0.2,1.7,0.6,2.5
		c1.3,3.1,2.4,3.8,3.5,5.3c0.7,1,1.6,2,2.3,2.8l1,1.2c0.8,0.9,0.8,1.9,0,3.2s-1.7,2.4-2.5,2.5c-0.5,0-0.9,0.2-1.3,0.4
		c-0.4,0.2-0.8,0.6-1,1c-0.5,1-0.3,2.1,0,3.4c0.1,0.3,0.2,0.7,0.2,1s-0.1,0.7-0.3,1c4.5,8.9,11,16.6,19,22.6v-0.5
		C78.7,87.5,81.9,77.6,87.7,69.3"/>
	<path class="st5" d="M110.3,92.5c-9.9-5-17.9-13.2-22.5-23.3c-6,8.3-9.2,18.2-9.2,28.4v0.5c0,1.5,0.1,3,0.3,4.5
		c0.3,2.7,0.8,5.4,1.5,8l30.2-15.1C110.4,94.6,110.3,93.5,110.3,92.5"/>
	<path class="st6" d="M115.1,52.6l0.3,0.2L94,42l-5-2.5l-2-1l-2.3-1.1l-0.3,1.5c-0.5,2.4-0.9,4.9-1,7.3V49c0,9,2.5,17.9,7.3,25.6
		s11.6,13.9,19.7,17.9v-1.6c0-7.8,2.6-15.4,7.4-21.6c-1.8-4.3-2.7-8.9-2.7-13.6L115.1,52.6"/>
	<path class="st7" d="M122.6,77.7c-2.1-2.5-3.7-5.4-5-8.4c-4.8,6.2-7.4,13.8-7.4,21.6v1.6c0,1,0.1,2.1,0.3,3.1l3.1-1.6l3.9-2
		l13.5-6.8C127.8,83.2,124.9,80.6,122.6,77.7"/>
	<path class="st8" d="M146,72.5c0-0.2,0-0.5-0.1-0.7v-0.1c0-0.2-0.1-0.4-0.1-0.7c0,0,0-0.1,0-0.1c0-0.1-0.1-0.2-0.1-0.4l-0.1-0.2
		l-0.1-0.3l-0.1-0.2l-0.2-0.5c-0.8-1.5-2-2.7-3.5-3.4l-13.9-6.9l-9.9-5l-2.7-1.3c-0.1,1-0.1,2.1-0.1,3.1c0,8,2.7,15.7,7.7,21.9
		c2.4,3,5.3,5.6,8.5,7.7l10.4-5.2c0.3-0.1,0.6-0.3,0.9-0.5l0.3-0.2l0.7-0.6l0.5-0.5l0.6-0.8l0.1-0.1C145.7,76,146.1,74.2,146,72.5"
		/>
	<path class="st9" d="M352.8,88.3h-12.2c-4.1,0-7.3-1.2-9.6-3.5s-3.5-5.5-3.5-9.6V52.9h-7.8V42.3h7.8v-5.8c0-1.5,0.6-3,1.7-4.1
		s2.5-1.7,4.1-1.7h6.6v11.5h12.9v10.5h-12.9v22c0,0.8,0.3,1.5,0.9,2c0.5,0.5,1.3,0.8,2,0.9h10L352.8,88.3z M198.8,42.3
		c-4.4-0.1-8.8,1-12.7,3.1c-3.6,1.9-6.7,4.8-8.8,8.3c-2.1,3.5-3.2,7.6-3.2,11.7s1.1,8.1,3.2,11.7c2.2,3.5,5.2,6.3,8.8,8.3
		c3.9,2.1,8.3,3.1,12.7,3.1h5.8V77.8h-5.8c-2.3,0.1-4.5-0.5-6.5-1.6c-1.8-1.1-3.3-2.6-4.2-4.5c-1-2-1.5-4.2-1.5-6.4
		c0-2.2,0.5-4.4,1.5-6.4c1-1.9,2.4-3.4,4.2-4.5c2-1.1,4.3-1.7,6.5-1.6h5.8v-4.8c0-1.5-0.6-3-1.7-4.1S200.4,42.4,198.8,42.3
		L198.8,42.3z M219.8,42.4h-6.7v46h12.4V48.1c0-1.5-0.6-3-1.7-4.1S221.4,42.3,219.8,42.4L219.8,42.4z M219.4,21.3
		c-1.8,0-3.6,0.6-5,1.7c-1.4,1.1-2.4,2.7-2.8,4.5c-0.4,1.8-0.1,3.6,0.7,5.3c0.8,1.6,2.2,2.9,3.9,3.6c1.7,0.7,3.6,0.8,5.3,0.3
		c1.7-0.5,3.3-1.6,4.3-3.1s1.5-3.3,1.3-5.1s-1-3.5-2.3-4.8c-0.7-0.7-1.5-1.3-2.5-1.7C221.4,21.5,220.4,21.3,219.4,21.3z M302.8,43.9
		c-3.7-1.9-7.7-2.8-11.9-2.7c-2.1,0-4.2,0.2-6.2,0.8c-1.9,0.5-3.7,1.2-5.3,2.2c-1.6,0.9-3,2.1-4.3,3.4H275c-1.2-1.3-2.7-2.5-4.2-3.4
		c-1.7-1-3.4-1.7-5.3-2.2c-2-0.5-4.1-0.8-6.2-0.8c-4.1-0.1-8.2,0.8-11.9,2.7c-3.1,1.6-5.7,4.1-7.5,7.2c-1.7,3-2.7,6.4-2.6,9.9v21.5
		c0,1.5,0.6,3,1.7,4.1c1.1,1.1,2.6,1.7,4.1,1.7h6.6V61c0-1.6,0.4-3.2,1.3-4.6c0.9-1.4,2.1-2.5,3.5-3.3c1.5-0.8,3.1-1.3,4.8-1.3
		s3.4,0.4,4.8,1.3c1.4,0.8,2.6,2,3.5,3.3c0.9,1.4,1.3,3,1.3,4.6v27.3h12.3V61c0-1.6,0.4-3.2,1.3-4.6c0.9-1.4,2.1-2.5,3.5-3.3
		c1.5-0.8,3.1-1.3,4.8-1.3s3.4,0.4,4.8,1.3c1.4,0.8,2.6,2,3.5,3.3c0.9,1.4,1.3,3,1.3,4.6v27.3h6.6c1.5,0,3-0.6,4.1-1.7
		c1.1-1.1,1.7-2.6,1.7-4.1V61c0-3.5-0.9-6.9-2.6-9.9C308.5,48,305.9,45.6,302.8,43.9L302.8,43.9z M432.1,65.4v17.1
		c0,0.8-0.1,1.5-0.4,2.2c-0.3,0.7-0.7,1.3-1.3,1.9c-0.5,0.5-1.2,1-1.9,1.3c-0.7,0.3-1.5,0.4-2.2,0.4h-6.6v-7.7h-0.2
		c-0.9,1.6-2,3.1-3.4,4.4c-1.4,1.4-3.1,2.4-4.9,3.2c-2.2,0.8-4.5,1.2-6.9,1.2c-3.9,0.1-7.8-1-11-3.3c-3.2-2.2-5.7-5.2-7.3-8.7
		c-1.7-3.8-2.6-7.9-2.6-12c-0.1-4.3,0.9-8.5,2.9-12.3c1.9-3.6,4.8-6.7,8.4-8.7c4-2.2,8.6-3.3,13.2-3.2c4.6-0.2,9.1,1,13.1,3.2
		c3.5,2.1,6.3,5.1,8.1,8.8C431.2,57.1,432.2,61.2,432.1,65.4L432.1,65.4z M419.6,65.3c0-2.3-0.4-4.7-1.4-6.8c-0.9-1.9-2.3-3.6-4-4.8
		c-1.8-1.2-4-1.9-6.2-1.8c-2.3-0.1-4.5,0.6-6.4,1.8c-1.8,1.2-3.2,2.9-4.1,4.8c-1,2.1-1.4,4.5-1.4,6.8c0,2.4,0.4,4.7,1.4,6.9
		c0.9,2,2.3,3.7,4.1,4.9c1.9,1.2,4.1,1.8,6.4,1.8c2.2,0.1,4.4-0.6,6.2-1.8c1.8-1.2,3.2-2.9,4-4.9C419.1,69.9,419.6,67.6,419.6,65.3
		L419.6,65.3z M374.7,48.1c0-1.5-0.6-3-1.7-4.1s-2.5-1.7-4.1-1.7h-6.7v46h12.4V48.1z M368.5,36.8c1.8,0,3.6-0.6,5-1.7
		c1.4-1.1,2.4-2.7,2.8-4.5c0.4-1.8,0.1-3.6-0.7-5.2c-0.8-1.6-2.2-2.9-3.9-3.6c-1.7-0.7-3.5-0.8-5.3-0.3s-3.3,1.6-4.3,3.1
		c-1,1.5-1.5,3.3-1.3,5.1c0.2,1.8,1,3.5,2.3,4.8c0.7,0.7,1.6,1.3,2.5,1.7S367.5,36.8,368.5,36.8z M372,125.8c-1.7,0-3.5-0.5-4.9-1.4
		c-1.4-1-2.5-2.3-3.2-3.9c-0.8-1.7-1.2-3.5-1.1-5.4c0-1.9,0.4-3.8,1.3-5.5c0.9-1.6,2.2-3,3.8-3.9c1.8-1,3.8-1.5,5.9-1.4
		c2-0.1,4.1,0.4,5.8,1.4c1.5,0.9,2.8,2.3,3.6,3.9c0.8,1.7,1.3,3.5,1.3,5.4v7c0,0.9-0.3,1.7-1,2.3c-0.6,0.6-1.4,0.9-2.3,0.9h-2.3V122
		h-0.1c-0.4,0.7-0.9,1.4-1.5,2c-0.6,0.6-1.4,1.1-2.2,1.4C374,125.7,373,125.9,372,125.8L372,125.8z M373.5,121.1c1,0,2-0.3,2.8-0.8
		c0.8-0.6,1.4-1.3,1.8-2.2c0.4-1,0.6-2,0.6-3.1c0-1-0.2-2.1-0.6-3c-0.4-0.9-1-1.6-1.8-2.2c-0.8-0.5-1.8-0.8-2.8-0.8
		c-1,0-2,0.3-2.8,0.8c-0.8,0.5-1.4,1.3-1.8,2.2c-0.4,0.9-0.6,2-0.6,3c0,1.1,0.2,2.1,0.6,3.1c0.4,0.9,1,1.6,1.8,2.2
		C371.5,120.9,372.5,121.1,373.5,121.1z M394.5,125c-1.3-0.5-2.4-1.3-3.4-2.3c-0.9-1-1.6-2.2-2.1-3.5c-0.5-1.4-0.7-2.9-0.7-4.4
		c0-1.9,0.4-3.7,1.2-5.4c0.8-1.5,2-2.8,3.4-3.6c1.6-0.9,3.4-1.4,5.2-1.3c0.8,0,1.7,0.1,2.5,0.4c0.8,0.2,1.5,0.6,2.1,1
		c0.6,0.4,1.2,1,1.6,1.6V96h2.3c0.9,0,1.7,0.3,2.3,0.9c0.6,0.6,1,1.4,1,2.3v15.4c0,2-0.4,4.1-1.3,5.9c-0.8,1.6-2.2,3-3.8,3.9
		c-1.8,0.9-3.7,1.4-5.7,1.4C397.5,125.8,396,125.5,394.5,125L394.5,125z M401.9,120.3c0.8-0.5,1.4-1.3,1.8-2.2c0.4-1,0.6-2,0.6-3.1
		s-0.2-2.1-0.6-3.1c-0.4-0.9-1-1.6-1.8-2.2c-0.8-0.5-1.8-0.8-2.8-0.8s-2,0.3-2.8,0.8c-0.8,0.5-1.4,1.3-1.8,2.2c-0.4,1-0.6,2-0.6,3.1
		s0.2,2.1,0.6,3.1c0.4,0.9,1,1.6,1.8,2.2c0.8,0.5,1.8,0.8,2.8,0.8S401.1,120.8,401.9,120.3z M415,122.1v-1.5h10
		c0.3,0,0.6-0.1,0.9-0.2c0.2-0.1,0.5-0.3,0.6-0.6c0.1-0.2,0.2-0.5,0.2-0.8c0-0.3-0.1-0.6-0.2-0.8c-0.1-0.2-0.4-0.4-0.6-0.6
		c-0.3-0.2-0.6-0.2-0.9-0.2h-3.9c-1.2,0-2.4-0.2-3.6-0.6c-1-0.4-1.9-1.1-2.5-2c-0.7-1.1-1-2.4-0.9-3.6c0-1.1,0.3-2.2,0.9-3.2
		c0.6-0.9,1.4-1.7,2.3-2.3c1-0.6,2.1-0.9,3.2-0.9h6.4c0.9,0,1.7,0.3,2.3,0.9c0.6,0.6,1,1.4,1,2.3v1.5h-9c-0.4,0-0.8,0.1-1.1,0.4
		c-0.2,0.1-0.3,0.3-0.4,0.5c-0.1,0.2-0.1,0.4-0.1,0.6c0,0.2,0,0.4,0.1,0.6c0.1,0.2,0.2,0.3,0.3,0.5c0.3,0.3,0.7,0.4,1.1,0.4h3.9
		c1.3,0,2.6,0.2,3.8,0.7c1,0.4,1.9,1.1,2.5,2.1c0.6,1.1,0.9,2.4,0.9,3.7c0,1.1-0.3,2.3-0.9,3.2c-0.6,1-1.4,1.8-2.4,2.3
		c-1,0.6-2.2,0.9-3.3,0.9h-7.3c-0.9,0-1.7-0.3-2.3-0.9C415.4,123.8,415,122.9,415,122.1"/>
</g>
</svg>
